<svg enable-background="new 0 0 32 32" viewBox="0 0 32 40" xmlns="http://www.w3.org/2000/svg"><path d="m30 32h-28c-1.1 0-2-.9-2-2v-28c0-1.1.9-2 2-2h28c1.1 0 2 .9 2 2v28c0 1.1-.9 2-2 2zm-28-30v28h28v-28z"/><path d="m20 26c-2.21 0-4-1.79-4-4s1.79-4 4-4 4 1.79 4 4-1.79 4-4 4zm0-6c-1.1 0-2 .9-2 2s.9 2 2 2 2-.9 2-2-.9-2-2-2z"/><path d="m14 23h-7c-.55 0-1-.45-1-1s.45-1 1-1h7c.55 0 1 .45 1 1s-.45 1-1 1z"/><path d="m25 23h-2c-.55 0-1-.45-1-1s.45-1 1-1h2c.55 0 1 .45 1 1s-.45 1-1 1z"/><path d="m14 14c-2.21 0-4-1.79-4-4s1.79-4 4-4 4 1.79 4 4-1.79 4-4 4zm0-6c-1.1 0-2 .9-2 2s.9 2 2 2 2-.9 2-2-.9-2-2-2z"/><path d="m25 11h-8c-.55 0-1-.45-1-1s.45-1 1-1h8c.55 0 1 .45 1 1s-.45 1-1 1z"/><path d="m8 11h-1c-.55 0-1-.45-1-1s.45-1 1-1h1c.55 0 1 .45 1 1s-.45 1-1 1z"/></svg>