<svg enable-background="new 0 0 32 32" viewBox="0 0 32 40" xmlns="http://www.w3.org/2000/svg"><path d="m30 32h-27.98c-1.11 0-2.02-.9-2.02-2v-20c0-.97.7-2 2-2h1c.55 0 1 .45 1 1s-.45 1-1 1h-1v20h28v-20h-1c-.55 0-1-.45-1-1s.45-1 1-1h1c1.3 0 2 1.03 2 2v20c0 1.1-.9 2-2 2z"/><path d="m26 17c-.55 0-1-.45-1-1v-14h-18v14c0 .55-.45 1-1 1s-1-.45-1-1v-14c0-1.1.9-2 2-2h18c1.1 0 2 .9 2 2v14c0 .55-.45 1-1 1z"/><path d="m16 9h-5c-.55 0-1-.45-1-1s.45-1 1-1h5c.55 0 1 .45 1 1s-.45 1-1 1z"/><path d="m21 13h-10c-.55 0-1-.45-1-1s.45-1 1-1h10c.55 0 1 .45 1 1s-.45 1-1 1z"/><path d="m20 23h-7c-1.1 0-2-.9-2-2v-1h-7c-.55 0-1-.45-1-1s.45-1 1-1h8c.55 0 1 .45 1 1v2h7v-2c0-.55.45-1 1-1h7c.55 0 1 .45 1 1s-.45 1-1 1h-6v1c0 1.1-.9 2-2 2z"/></svg>
