<svg viewBox="0 0 86 64" width="86" xmlns="http://www.w3.org/2000/svg"><path d="m84.121 30.853c-5.265-5.395-33.879-26.912-35.397-27.964-3.155-2.185-4.372-2.063-5.605-2.057-1.083.005-2.452-.128-5.605 2.057-1.52 1.052-30.132 22.57-35.398 27.964-3.021 3.094-1.017 6.429 2.003 6.429.983 0 2.997.002 4.612 0 3.526-.005 5.652 2.266 5.707 5.619.06 3.725.004 14.537.004 14.537s-.707 6.361 5.592 6.381c3.121.009 8.215.01 13.969.009.935 0 3.235-.29 3.277-3.012.047-3.047 1.592-3.918 3.559-3.918 2.248 0 .836-.004 2.28-.023 1.118-.015.035-.064 2.277.026 2.325.095 3.264 1.523 3.355 3.892.025 1.641.703 3.036 2.762 3.036 5.899-.001 11.774-.046 14.428-.033 6.462.032 5.863-6.357 5.863-6.357s-.065-10.814-.005-14.539c.055-3.352 2.18-5.624 5.707-5.619 1.614.003 3.628 0 4.611 0 3.021.001 5.024-3.334 2.004-6.428z"/></svg>
