<?xml version="1.0" encoding="utf-8"?>
<!-- Generator: Adobe Illustrator 23.0.3, SVG Export Plug-In . SVG Version: 6.00 Build 0)  -->
<svg version="1.1" id="Layer_1" xmlns="http://www.w3.org/2000/svg" xmlns:xlink="http://www.w3.org/1999/xlink" x="0px" y="0px"
	 viewBox="0 0 43.2 28.8" style="enable-background:new 0 0 43.2 28.8;" xml:space="preserve">
<style type="text/css">
	.st0{fill:#FFFFFF;}
	.st1{fill:#807FFF;}
	.st2{fill:#343434;}
</style>
<g>
	<path class="st2" d="M35.49,10.92c-1.88-1.4-4.38-1.94-6.68-1.44c-1.76,0.38-3.4,1.37-4.62,2.79c-0.93,1.08-1.55,2.36-2.15,3.59
		c-0.3,0.62-0.61,1.26-0.97,1.88c-0.53,1-1.25,1.88-2.1,2.54c-0.88,0.68-1.95,1.15-3.19,1.41c-0.31,0.06-0.62,0.1-0.92,0.13
		l-0.43,0.02c-1.07-0.01-1.93-0.14-2.71-0.41c-0.79-0.27-1.51-0.68-2.15-1.21C8.95,19.68,8.42,19.06,8,18.34
		c-0.43-0.73-0.73-1.54-0.89-2.39c-0.09-0.5-0.14-1.02-0.14-1.55c0-4.24,3.12-7.44,7.26-7.44c1.5,0,2.8,0.4,3.97,1.21
		c0.37,0.26,0.68,0.52,1.06,0.89l0.25,0.26c0.1,0.11,0.24,0.17,0.39,0.17c0.14,0,0.29-0.05,0.4-0.16l2.06-2.03
		c0.08-0.09,0.33-0.43-0.04-0.8c-0.17-0.17-0.49-0.5-0.78-0.74C19.48,3.98,16.86,3,14.15,2.99c-0.63,0-1.28,0.06-1.92,0.17
		c-0.35,0.06-0.7,0.15-0.7,0.15c-5.04,1.21-8.7,5.88-8.71,11.1l0.03,0.74c0.24,3.89,2.37,7.32,5.69,9.18c1.52,0.85,3.2,1.34,5,1.44
		c0.05,0,0.13,0.01,0.17,0.01l0.17,0.01c1.13,0.04,2.29-0.1,3.43-0.4c1.2-0.32,2.31-0.81,3.29-1.45c0.58-0.36,1.11-0.77,1.56-1.22
		c1.18-1.16,2.11-2.53,3-4.44c0.1-0.21,0.15-0.33,0.18-0.39l0,0l0.07-0.16c0.59-1.28,1.2-2.6,2.27-3.48
		c0.92-0.76,2.13-1.13,3.32-1.01c1.67,0.16,3.14,1.28,3.67,2.78c0.17,0.48,0.25,0.98,0.25,1.49c0,1.2-0.37,2.29-1.04,3.07
		c-1.03,1.2-2.81,1.71-4.35,1.24c-0.81-0.25-1.66-0.9-2.21-1.69c-0.04-0.06-0.08-0.12-0.12-0.19c-0.16-0.26-0.55-0.24-0.67,0.04l0,0
		c-0.38,0.85-0.83,1.66-1.31,2.34l-0.12,0.17c-0.15,0.22-0.15,0.51,0.02,0.72c1.12,1.34,2.77,2.25,4.63,2.51
		c0.36,0.05,0.72,0.08,1.08,0.08c1.96,0,3.86-0.75,5.35-2.13c0.74-0.69,1.34-1.49,1.77-2.38c0.28-0.59,0.5-1.22,0.65-1.86
		c0.14-0.63,0.21-1.27,0.21-1.93C38.82,14.89,37.61,12.49,35.49,10.92"/>
</g>
</svg>
