<svg enable-background="new 0 0 234 162" viewBox="0 0 234 162" xmlns="http://www.w3.org/2000/svg"><path d="m204.91 60.39c-11.09-8.25-25.87-11.42-39.38-8.51-10.55 2.27-20.28 8.3-27.3 16.46-8.33 9.69-12.5 22.07-18.81 33.1-.02.03-.04.06-.06.09-3.25 6.21-7.84 11.88-13.37 16.17-5.93 4.6-13 7.47-20.34 8.96-1.95.4-3.93.67-5.91.81-.91.04-1.81.09-2.72.14-5.85-.03-11.66-.67-17.21-2.62-4.99-1.75-9.66-4.37-13.74-7.74-4.05-3.35-7.49-7.41-10.14-11.95-2.76-4.71-4.67-9.91-5.69-15.27-.62-3.25-.92-6.55-.92-9.86 0-27.06 19.94-47.46 46.38-47.46 9.56 0 17.94 2.54 25.39 7.73 2.67 1.86 4.68 3.64 6.76 5.68l.29.3c1.27 1.31 3.36 1.34 4.67.06l7.35-7.19 2.67-2.67c1.26-1.26 1.29-3.29.07-4.58-.09-.09-1.54-1.66-3.69-3.44-12.17-10.53-27.7-16.36-43.96-16.42-3.82 0-7.68.35-11.5 1.02-2.09.32-4.13.88-4.13.88-30.13 7.24-51.86 34.73-51.89 66.23 0 .38.01.76.02 1.13l.03 1.03c.01.41.01.82.03 1.23l.08 1.06c1.44 23.19 14.12 43.64 33.91 54.71 9.07 5.08 19.07 7.96 29.83 8.58.27.02.71.05.92.05.27 0 .74.02.77.02l.3.01c6.75.23 13.71-.59 20.49-2.41 7.19-1.92 13.82-4.84 19.66-8.65 3.44-2.12 6.55-4.54 9.24-7.19 7.08-6.96 12.63-15.19 17.99-26.68l1.12-2.41c3.83-8.25 7.72-17.04 14.9-22.96 5.99-4.94 13.99-7.38 21.72-6.62 10.68 1.06 20.48 8.08 24.07 18.31 1.1 3.13 1.66 6.41 1.66 9.76 0 7.79-2.42 14.9-6.8 20.04-6.7 7.84-18.52 11.27-28.63 8.15-5.57-1.72-11.02-6.06-14.52-11.05-1.68-2.42-3.35-5.54-4.56-8.88-.54-1.48-2.58-1.59-3.27-.18-2.25 4.61-4.82 10.13-7.45 14.55-.69 1.16-.76 2.59-.13 3.79l.32.61c6.32 12.03 18.48 19.6 31.77 21.48 13.81 1.95 27.66-2.65 37.86-12.08 4.31-3.99 7.89-8.76 10.45-14.05 1.68-3.48 2.96-7.17 3.81-10.99.82-3.7 1.24-7.53 1.24-11.39.01-15.58-7.15-29.6-19.65-38.89" fill="#807fff"/></svg>