<svg enable-background="new 0 0 93.6 28.8" viewBox="0 0 93.6 28.8" xmlns="http://www.w3.org/2000/svg"><g fill="#343434"><path d="m51.54 16.1c0-3.81-2.49-6.34-6.16-6.34-1.47 0-2.61.29-3.79 1.26-.11.09-.27.01-.27-.13v-6.67c0-.27-.22-.48-.48-.48h-2.31c-.27 0-.48.22-.48.48v20.18c0 .27.22.48.48.48h2.31c.27 0 .48-.22.48-.48v-8.24c0-.95.38-1.89 1.1-2.51.65-.56 1.48-.86 2.44-.86 2.23 0 3.4 1.55 3.4 3.69v7.92c0 .27.22.48.48.48h2.31c.27 0 .48-.22.48-.48v-8.3z"/><path d="m69.14 24.41c0 .27.21.48.48.48h2.32c.26 0 .48-.22.48-.48v-7.89c0-.48.05-.97.2-1.43.12-.39.3-.76.55-1.07.23-.29.53-.53.86-.7.36-.19.76-.29 1.16-.34.49-.06.99 0 1.44.19.18.08.38.03.5-.13l1.45-1.95c.16-.21.07-.51-.17-.62-.81-.35-1.56-.49-2.36-.51-.68-.02-1.35.07-2 .27-.31.1-.6.22-.88.39-.14.09-.28.18-.41.28-.02.02-.07.06-.12.12-.08.08-.22.03-.22-.09v-.44c0-.26-.22-.48-.48-.48h-2.32c-.27 0-.48.22-.48.48z"/><path d="m63.92 15.74h-7.5c-.12 0-.21-.11-.18-.23.55-2.15 2.44-2.96 3.91-2.96 1.08 0 2.18.33 2.97 1.1.51.5.88 1.17.97 1.88.02.11-.06.21-.17.21m3.12-1.39c-1.04-2.85-3.48-4.6-6.68-4.6-4.29 0-7.57 3.34-7.57 7.69 0 4.41 3.4 7.68 7.63 7.68 2.52 0 4.61-.98 5.95-2.43.19-.21.18-.53-.04-.72l-1.59-1.37c-.2-.17-.51-.16-.7.03-.83.86-2.04 1.46-3.61 1.46-1.98 0-3.96-1.35-4.31-3.68-.02-.15.1-.28.25-.28h10.73c.18 0 .34-.15.35-.32.04-1.05-.05-2.37-.41-3.46"/><path d="m88.52 15.74h-7.5c-.12 0-.21-.11-.18-.23.55-2.15 2.44-2.96 3.91-2.96 1.08 0 2.18.33 2.97 1.1.51.5.88 1.17.97 1.88.02.11-.06.21-.17.21m3.12-1.39c-1.04-2.84-3.48-4.59-6.68-4.59-4.29 0-7.57 3.34-7.57 7.69 0 4.41 3.4 7.68 7.63 7.68 2.52 0 4.61-.98 5.95-2.43.19-.21.18-.53-.04-.72l-1.59-1.37c-.2-.17-.51-.16-.7.03-.83.86-2.04 1.46-3.61 1.46-1.98 0-3.96-1.35-4.31-3.68-.02-.15.1-.28.25-.28h10.74c.18 0 .34-.15.35-.32.03-1.06-.07-2.38-.42-3.47"/><path d="m33.85 11.1c-1.79-1.33-4.17-1.84-6.35-1.37-1.7.37-3.27 1.34-4.4 2.65-1.34 1.56-2.02 3.56-3.03 5.34 0 .01-.01.01-.01.02-.52 1-1.26 1.92-2.16 2.61-.94.73-2.06 1.19-3.22 1.43-.35.07-.93.14-1.28.16l-.17.01c-.94-.01-1.88-.11-2.77-.42-.81-.28-1.56-.7-2.22-1.25-.65-.54-1.21-1.2-1.64-1.93-.45-.76-.75-1.6-.92-2.46-.1-.52-.15-1.06-.15-1.59 0-4.36 3.22-7.66 7.48-7.66 1.54 0 2.89.41 4.09 1.25.43.3.76.59 1.09.92l.05.05c.2.21.54.22.75.01l1.19-1.16.43-.43c.2-.2.21-.53.01-.74-.01-.02-.25-.27-.59-.56-1.96-1.7-4.47-2.64-7.09-2.65-.62 0-1.24.06-1.85.16-.34.05-.67.14-.67.14-4.86 1.17-8.36 5.6-8.37 10.68v.18.17c0 .07 0 .13.01.2l.01.17c.23 3.74 2.28 7.04 5.47 8.82 1.46.82 3.08 1.28 4.81 1.38.04 0 .11.01.15.01h.12.05c1.09.04 2.21-.1 3.31-.39 1.16-.31 2.23-.78 3.17-1.39.55-.34 1.06-.73 1.49-1.16 1.14-1.12 2.04-2.45 2.9-4.3l.18-.39c.62-1.33 1.25-2.75 2.4-3.7.97-.8 2.26-1.19 3.5-1.07 1.72.17 3.3 1.3 3.88 2.95.18.5.27 1.03.27 1.57 0 1.26-.39 2.4-1.1 3.23-1.08 1.26-2.99 1.82-4.62 1.32-.9-.28-1.78-.98-2.34-1.78-.11-.16-.23-.35-.33-.55-.09-.16-.32-.17-.41-.01l-1.36 2.12c-.11.17-.11.39 0 .55 1.08 1.64 2.86 2.68 4.81 2.95 2.23.31 4.46-.43 6.11-1.95.7-.64 1.27-1.41 1.69-2.27.27-.56.48-1.16.61-1.77.13-.6.2-1.22.2-1.84 0-2.5-1.16-4.76-3.18-6.26"/></g></svg>