<?xml version="1.0" encoding="utf-8"?>
<!-- Generator: Adobe Illustrator 23.0.3, SVG Export Plug-In . SVG Version: 6.00 Build 0)  -->
<svg version="1.1" id="Layer_1" xmlns="http://www.w3.org/2000/svg" xmlns:xlink="http://www.w3.org/1999/xlink" x="0px" y="0px"
	 viewBox="0 0 93.6 28.8" style="enable-background:new 0 0 93.6 28.8;" xml:space="preserve">
<style type="text/css">
	.st0{fill:#FFFFFF;}
	.st1{fill:#807FFF;}
	.st2{fill:#343434;}
</style>
<g>
	<path class="st2" d="M51.54,16.1c0-3.81-2.49-6.34-6.16-6.34c-1.47,0-2.61,0.29-3.79,1.26c-0.11,0.09-0.27,0.01-0.27-0.13V4.22
		c0-0.27-0.22-0.48-0.48-0.48h-2.31c-0.27,0-0.48,0.22-0.48,0.48V24.4c0,0.27,0.22,0.48,0.48,0.48h2.31c0.27,0,0.48-0.22,0.48-0.48
		v-8.24c0-0.95,0.38-1.89,1.1-2.51c0.65-0.56,1.48-0.86,2.44-0.86c2.23,0,3.4,1.55,3.4,3.69v7.92c0,0.27,0.22,0.48,0.48,0.48h2.31
		c0.27,0,0.48-0.22,0.48-0.48V16.1z"/>
	<path class="st2" d="M69.14,24.41c0,0.27,0.21,0.48,0.48,0.48h2.32c0.26,0,0.48-0.22,0.48-0.48v-7.89c0-0.48,0.05-0.97,0.2-1.43
		c0.12-0.39,0.3-0.76,0.55-1.07c0.23-0.29,0.53-0.53,0.86-0.7c0.36-0.19,0.76-0.29,1.16-0.34c0.49-0.06,0.99,0,1.44,0.19
		c0.18,0.08,0.38,0.03,0.5-0.13l1.45-1.95c0.16-0.21,0.07-0.51-0.17-0.62c-0.81-0.35-1.56-0.49-2.36-0.51
		c-0.68-0.02-1.35,0.07-2,0.27c-0.31,0.1-0.6,0.22-0.88,0.39c-0.14,0.09-0.28,0.18-0.41,0.28c-0.02,0.02-0.07,0.06-0.12,0.12
		c-0.08,0.08-0.22,0.03-0.22-0.09v-0.44c0-0.26-0.22-0.48-0.48-0.48h-2.32c-0.27,0-0.48,0.22-0.48,0.48V24.41z"/>
	<path class="st2" d="M63.92,15.74h-7.5c-0.12,0-0.21-0.11-0.18-0.23c0.55-2.15,2.44-2.96,3.91-2.96c1.08,0,2.18,0.33,2.97,1.1
		c0.51,0.5,0.88,1.17,0.97,1.88C64.11,15.64,64.03,15.74,63.92,15.74 M67.04,14.35C66,11.5,63.56,9.75,60.36,9.75
		c-4.29,0-7.57,3.34-7.57,7.69c0,4.41,3.4,7.68,7.63,7.68c2.52,0,4.61-0.98,5.95-2.43c0.19-0.21,0.18-0.53-0.04-0.72l-1.59-1.37
		c-0.2-0.17-0.51-0.16-0.7,0.03c-0.83,0.86-2.04,1.46-3.61,1.46c-1.98,0-3.96-1.35-4.31-3.68c-0.02-0.15,0.1-0.28,0.25-0.28H67.1
		c0.18,0,0.34-0.15,0.35-0.32C67.49,16.76,67.4,15.44,67.04,14.35"/>
	<path class="st2" d="M88.52,15.74h-7.5c-0.12,0-0.21-0.11-0.18-0.23c0.55-2.15,2.44-2.96,3.91-2.96c1.08,0,2.18,0.33,2.97,1.1
		c0.51,0.5,0.88,1.17,0.97,1.88C88.71,15.64,88.63,15.74,88.52,15.74 M91.64,14.35c-1.04-2.84-3.48-4.59-6.68-4.59
		c-4.29,0-7.57,3.34-7.57,7.69c0,4.41,3.4,7.68,7.63,7.68c2.52,0,4.61-0.98,5.95-2.43c0.19-0.21,0.18-0.53-0.04-0.72l-1.59-1.37
		c-0.2-0.17-0.51-0.16-0.7,0.03c-0.83,0.86-2.04,1.46-3.61,1.46c-1.98,0-3.96-1.35-4.31-3.68c-0.02-0.15,0.1-0.28,0.25-0.28h10.74
		c0.18,0,0.34-0.15,0.35-0.32C92.09,16.76,91.99,15.44,91.64,14.35"/>
	<path class="st2" d="M33.85,11.1c-1.79-1.33-4.17-1.84-6.35-1.37c-1.7,0.37-3.27,1.34-4.4,2.65c-1.34,1.56-2.02,3.56-3.03,5.34
		c0,0.01-0.01,0.01-0.01,0.02c-0.52,1-1.26,1.92-2.16,2.61c-0.94,0.73-2.06,1.19-3.22,1.43c-0.35,0.07-0.93,0.14-1.28,0.16
		l-0.17,0.01c-0.94-0.01-1.88-0.11-2.77-0.42c-0.81-0.28-1.56-0.7-2.22-1.25c-0.65-0.54-1.21-1.2-1.64-1.93
		c-0.45-0.76-0.75-1.6-0.92-2.46c-0.1-0.52-0.15-1.06-0.15-1.59c0-4.36,3.22-7.66,7.48-7.66c1.54,0,2.89,0.41,4.09,1.25
		c0.43,0.3,0.76,0.59,1.09,0.92l0.05,0.05c0.2,0.21,0.54,0.22,0.75,0.01l1.19-1.16l0.43-0.43c0.2-0.2,0.21-0.53,0.01-0.74
		c-0.01-0.02-0.25-0.27-0.59-0.56c-1.96-1.7-4.47-2.64-7.09-2.65c-0.62,0-1.24,0.06-1.85,0.16c-0.34,0.05-0.67,0.14-0.67,0.14
		C5.56,4.8,2.06,9.23,2.05,14.31c0,0.06,0,0.12,0,0.18l0,0.17c0,0.07,0,0.13,0.01,0.2l0.01,0.17c0.23,3.74,2.28,7.04,5.47,8.82
		c1.46,0.82,3.08,1.28,4.81,1.38c0.04,0,0.11,0.01,0.15,0.01c0.04,0,0.12,0,0.12,0l0.05,0c1.09,0.04,2.21-0.1,3.31-0.39
		c1.16-0.31,2.23-0.78,3.17-1.39c0.55-0.34,1.06-0.73,1.49-1.16c1.14-1.12,2.04-2.45,2.9-4.3l0.18-0.39c0.62-1.33,1.25-2.75,2.4-3.7
		c0.97-0.8,2.26-1.19,3.5-1.07c1.72,0.17,3.3,1.3,3.88,2.95c0.18,0.5,0.27,1.03,0.27,1.57c0,1.26-0.39,2.4-1.1,3.23
		c-1.08,1.26-2.99,1.82-4.62,1.32c-0.9-0.28-1.78-0.98-2.34-1.78c-0.11-0.16-0.23-0.35-0.33-0.55c-0.09-0.16-0.32-0.17-0.41-0.01
		l-1.36,2.12c-0.11,0.17-0.11,0.39,0,0.55c1.08,1.64,2.86,2.68,4.81,2.95c2.23,0.31,4.46-0.43,6.11-1.95
		c0.7-0.64,1.27-1.41,1.69-2.27c0.27-0.56,0.48-1.16,0.61-1.77c0.13-0.6,0.2-1.22,0.2-1.84C37.03,14.86,35.87,12.6,33.85,11.1"/>
</g>
</svg>
