<svg enable-background="new 0 0 43.2 28.8" viewBox="0 0 43.2 28.8" xmlns="http://www.w3.org/2000/svg"><path d="m35.49 10.92c-1.88-1.4-4.38-1.94-6.68-1.44-1.76.38-3.4 1.37-4.62 2.79-.93 1.08-1.55 2.36-2.15 3.59-.3.62-.61 1.26-.97 1.88-.53 1-1.25 1.88-2.1 2.54-.88.68-1.95 1.15-3.19 1.41-.31.06-.62.1-.92.13l-.43.02c-1.07-.01-1.93-.14-2.71-.41-.79-.27-1.51-.68-2.15-1.21-.62-.54-1.15-1.16-1.57-1.88-.43-.73-.73-1.54-.89-2.39-.09-.5-.14-1.02-.14-1.55 0-4.24 3.12-7.44 7.26-7.44 1.5 0 2.8.4 3.97 1.21.37.26.68.52 1.06.89l.25.26c.1.11.24.17.39.17.14 0 .29-.05.4-.16l2.06-2.03c.08-.09.33-.43-.04-.8-.17-.17-.49-.5-.78-.74-2.06-1.78-4.68-2.76-7.39-2.77-.63 0-1.28.06-1.92.17-.35.06-.7.15-.7.15-5.04 1.21-8.7 5.88-8.71 11.1l.03.74c.24 3.89 2.37 7.32 5.69 9.18 1.52.85 3.2 1.34 5 1.44.05 0 .13.01.17.01l.17.01c1.13.04 2.29-.1 3.43-.4 1.2-.32 2.31-.81 3.29-1.45.58-.36 1.11-.77 1.56-1.22 1.18-1.16 2.11-2.53 3-4.44.1-.21.15-.33.18-.39l.07-.16c.59-1.28 1.2-2.6 2.27-3.48.92-.76 2.13-1.13 3.32-1.01 1.67.16 3.14 1.28 3.67 2.78.17.48.25.98.25 1.49 0 1.2-.37 2.29-1.04 3.07-1.03 1.2-2.81 1.71-4.35 1.24-.81-.25-1.66-.9-2.21-1.69-.04-.06-.08-.12-.12-.19-.16-.26-.55-.24-.67.04-.38.85-.83 1.66-1.31 2.34l-.12.17c-.15.22-.15.51.02.72 1.12 1.34 2.77 2.25 4.63 2.51.36.05.72.08 1.08.08 1.96 0 3.86-.75 5.35-2.13.74-.69 1.34-1.49 1.77-2.38.28-.59.5-1.22.65-1.86.14-.63.21-1.27.21-1.93.01-2.61-1.2-5.01-3.32-6.58" fill="#807fff"/></svg>