<?xml version="1.0" encoding="utf-8"?>
<!-- Generator: Adobe Illustrator 23.0.3, SVG Export Plug-In . SVG Version: 6.00 Build 0)  -->
<svg version="1.1" id="Layer_1" xmlns="http://www.w3.org/2000/svg" xmlns:xlink="http://www.w3.org/1999/xlink" x="0px" y="0px"
	 viewBox="0 0 234 162" style="enable-background:new 0 0 234 162;" xml:space="preserve">
<style type="text/css">
	.st0{fill:#FFFFFF;}
	.st1{fill:#807FFF;}
	.st2{fill:#343434;}
</style>
<g>
	<path class="st1" d="M204.91,60.39c-11.09-8.25-25.87-11.42-39.38-8.51c-10.55,2.27-20.28,8.3-27.3,16.46
		c-8.33,9.69-12.5,22.07-18.81,33.1c-0.02,0.03-0.04,0.06-0.06,0.09c-3.25,6.21-7.84,11.88-13.37,16.17
		c-5.93,4.6-13,7.47-20.34,8.96c-1.95,0.4-3.93,0.67-5.91,0.81c-0.91,0.04-1.81,0.09-2.72,0.14c-5.85-0.03-11.66-0.67-17.21-2.62
		c-4.99-1.75-9.66-4.37-13.74-7.74c-4.05-3.35-7.49-7.41-10.14-11.95c-2.76-4.71-4.67-9.91-5.69-15.27
		c-0.62-3.25-0.92-6.55-0.92-9.86c0-27.06,19.94-47.46,46.38-47.46c9.56,0,17.94,2.54,25.39,7.73c2.67,1.86,4.68,3.64,6.76,5.68
		l0.29,0.3c1.27,1.31,3.36,1.34,4.67,0.06l7.35-7.19l2.67-2.67c1.26-1.26,1.29-3.29,0.07-4.58c-0.09-0.09-1.54-1.66-3.69-3.44
		c-12.17-10.53-27.7-16.36-43.96-16.42c-3.82,0-7.68,0.35-11.5,1.02c-2.09,0.32-4.13,0.88-4.13,0.88
		C29.49,21.32,7.76,48.81,7.73,80.31c0,0.38,0.01,0.76,0.02,1.13l0.03,1.03c0.01,0.41,0.01,0.82,0.03,1.23l0.08,1.06
		c1.44,23.19,14.12,43.64,33.91,54.71c9.07,5.08,19.07,7.96,29.83,8.58c0.27,0.02,0.71,0.05,0.92,0.05c0.27,0,0.74,0.02,0.77,0.02
		l0.3,0.01c6.75,0.23,13.71-0.59,20.49-2.41c7.19-1.92,13.82-4.84,19.66-8.65c3.44-2.12,6.55-4.54,9.24-7.19
		c7.08-6.96,12.63-15.19,17.99-26.68l1.12-2.41c3.83-8.25,7.72-17.04,14.9-22.96c5.99-4.94,13.99-7.38,21.72-6.62
		c10.68,1.06,20.48,8.08,24.07,18.31c1.1,3.13,1.66,6.41,1.66,9.76c0,7.79-2.42,14.9-6.8,20.04c-6.7,7.84-18.52,11.27-28.63,8.15
		c-5.57-1.72-11.02-6.06-14.52-11.05c-1.68-2.42-3.35-5.54-4.56-8.88c-0.54-1.48-2.58-1.59-3.27-0.18
		c-2.25,4.61-4.82,10.13-7.45,14.55c-0.69,1.16-0.76,2.59-0.13,3.79l0.32,0.61c6.32,12.03,18.48,19.6,31.77,21.48
		c13.81,1.95,27.66-2.65,37.86-12.08c4.31-3.99,7.89-8.76,10.45-14.05c1.68-3.48,2.96-7.17,3.81-10.99
		c0.82-3.7,1.24-7.53,1.24-11.39C224.57,83.7,217.41,69.68,204.91,60.39"/>
</g>
</svg>
