<?xml version="1.0" encoding="utf-8"?>
<!-- Generator: Adobe Illustrator 23.0.3, SVG Export Plug-In . SVG Version: 6.00 Build 0)  -->
<svg version="1.1" id="Layer_1" xmlns="http://www.w3.org/2000/svg" xmlns:xlink="http://www.w3.org/1999/xlink" x="0px" y="0px"
	 viewBox="0 0 576 162" style="enable-background:new 0 0 576 162;" xml:space="preserve">
<style type="text/css">
	.st0{fill:#FFFFFF;}
	.st1{fill:#807FFF;}
	.st2{fill:#343434;}
</style>
<g>
	<path class="st1" d="M315.06,91.39c0-23.64-15.44-39.34-38.16-39.34c-9.09,0-16.17,1.78-23.49,7.79c-0.68,0.55-1.7,0.04-1.7-0.83
		V17.73c0-1.65-1.34-2.98-2.98-2.98h-14.35c-1.65,0-2.98,1.34-2.98,2.98v125.16c0,1.65,1.34,2.98,2.98,2.98h14.35
		c1.65,0,2.98-1.34,2.98-2.98V91.77c0-5.91,2.34-11.7,6.82-15.55c4.01-3.45,9.15-5.33,15.16-5.33c13.85,0,21.06,9.6,21.06,22.9v49.1
		c0,1.65,1.34,2.98,2.98,2.98h14.35c1.65,0,2.98-1.34,2.98-2.98V91.39z"/>
	<path class="st1" d="M424.14,142.89c0,1.65,1.34,2.98,2.98,2.98h14.35c1.65,0,2.98-1.34,2.98-2.98V93.96c0-3,0.34-6.02,1.22-8.89
		c0.73-2.4,1.86-4.69,3.44-6.66c1.45-1.8,3.27-3.29,5.32-4.36c2.26-1.18,4.7-1.8,7.21-2.12c3.03-0.39,6.12,0.01,8.93,1.2
		c1.1,0.47,2.37,0.18,3.08-0.78l8.98-12.11c0.97-1.31,0.45-3.19-1.05-3.83c-5.03-2.15-9.66-3.07-14.61-3.19
		c-4.19-0.1-8.4,0.42-12.38,1.7c-1.9,0.61-3.75,1.38-5.47,2.41c-0.88,0.52-1.73,1.1-2.54,1.73c-0.12,0.09-0.42,0.4-0.77,0.75
		c-0.49,0.52-1.36,0.17-1.36-0.55v-2.76c0-1.65-1.34-2.98-2.98-2.98h-14.35c-1.65,0-2.98,1.34-2.98,2.98V142.89z"/>
	<path class="st1" d="M391.79,89.18H345.3c-0.73,0-1.27-0.69-1.09-1.4c3.44-13.35,15.13-18.36,24.24-18.36
		c6.68,0,13.53,2.07,18.41,6.83c3.15,3.08,5.47,7.24,6.05,11.64C392.99,88.57,392.47,89.18,391.79,89.18 M411.13,80.52
		c-6.42-17.62-21.58-28.47-41.39-28.47c-26.6,0-46.91,20.69-46.91,47.65c0,27.34,21.05,47.65,47.28,47.65
		c15.61,0,28.57-6.08,36.87-15.08c1.21-1.31,1.11-3.32-0.24-4.48l-9.88-8.51c-1.24-1.07-3.19-0.98-4.33,0.19
		c-5.18,5.31-12.65,9.04-22.41,9.04c-12.26,0-24.52-8.38-26.75-22.83c-0.14-0.92,0.61-1.74,1.53-1.74h66.58
		c1.11,0,2.1-0.91,2.15-2.02C413.93,95.49,413.35,87.32,411.13,80.52"/>
	<path class="st1" d="M544.28,89.18h-46.49c-0.73,0-1.28-0.69-1.09-1.4c3.44-13.35,15.13-18.36,24.24-18.36
		c6.68,0,13.54,2.07,18.41,6.83c3.15,3.08,5.47,7.24,6.05,11.64C545.48,88.57,544.97,89.18,544.28,89.18 M563.62,80.52
		c-6.42-17.62-21.58-28.47-41.39-28.47c-26.6,0-46.91,20.69-46.91,47.65c0,27.34,21.05,47.65,47.28,47.65
		c15.61,0,28.57-6.08,36.87-15.08c1.21-1.31,1.11-3.32-0.24-4.48l-9.88-8.51c-1.24-1.07-3.19-0.98-4.33,0.19
		c-5.18,5.31-12.65,9.04-22.41,9.04c-12.26,0-24.52-8.38-26.75-22.83c-0.14-0.92,0.61-1.74,1.53-1.74h66.58
		c1.11,0,2.1-0.91,2.15-2.02C566.43,95.49,565.85,87.32,563.62,80.52"/>
	<path class="st1" d="M205.38,60.39c-11.09-8.25-25.87-11.42-39.38-8.51c-10.55,2.27-20.28,8.3-27.3,16.46
		c-8.33,9.69-12.5,22.07-18.81,33.1c-0.02,0.03-0.04,0.06-0.06,0.09c-3.25,6.21-7.84,11.88-13.37,16.17
		c-5.93,4.6-13,7.47-20.34,8.96c-1.95,0.4-3.93,0.67-5.91,0.81c-0.91,0.04-1.81,0.09-2.72,0.14c-5.85-0.03-11.66-0.67-17.21-2.62
		c-4.99-1.75-9.66-4.37-13.74-7.74c-4.05-3.35-7.49-7.41-10.14-11.95c-2.76-4.71-4.67-9.91-5.69-15.27
		c-0.62-3.25-0.92-6.55-0.92-9.86c0-27.06,19.94-47.46,46.38-47.46c9.56,0,17.94,2.54,25.39,7.73c2.67,1.86,4.68,3.64,6.76,5.68
		l0.29,0.3c1.27,1.31,3.36,1.34,4.67,0.06l7.35-7.19l2.67-2.67c1.26-1.26,1.29-3.29,0.07-4.58c-0.09-0.09-1.54-1.66-3.69-3.44
		C107.53,18.09,92,12.26,75.74,12.2c-3.82,0-7.68,0.35-11.5,1.02c-2.09,0.32-4.13,0.88-4.13,0.88C29.96,21.32,8.23,48.81,8.2,80.31
		c0,0.38,0.01,0.76,0.02,1.13l0.03,1.03c0.01,0.41,0.01,0.82,0.03,1.23l0.08,1.06c1.44,23.19,14.12,43.64,33.91,54.71
		c9.07,5.08,19.06,7.96,29.83,8.58c0.27,0.02,0.71,0.05,0.92,0.05c0.27,0,0.74,0.02,0.77,0.02l0.3,0.01
		c6.75,0.23,13.71-0.59,20.49-2.41c7.19-1.92,13.82-4.84,19.66-8.65c3.44-2.12,6.55-4.54,9.24-7.19
		c7.08-6.96,12.63-15.19,17.99-26.68l1.12-2.41c3.83-8.25,7.72-17.04,14.9-22.96c5.99-4.94,13.99-7.38,21.72-6.62
		c10.68,1.06,20.48,8.08,24.07,18.31c1.1,3.13,1.66,6.41,1.66,9.76c0,7.79-2.42,14.9-6.8,20.04c-6.7,7.84-18.52,11.27-28.63,8.15
		c-5.57-1.72-11.02-6.06-14.52-11.05c-1.68-2.42-3.35-5.54-4.56-8.88c-0.54-1.48-2.58-1.59-3.27-0.18
		c-2.25,4.61-4.82,10.13-7.45,14.55c-0.69,1.16-0.76,2.59-0.13,3.79l0.32,0.61c6.32,12.03,18.48,19.6,31.77,21.48
		c13.81,1.95,27.66-2.65,37.86-12.08c4.31-3.99,7.89-8.76,10.45-14.05c1.68-3.48,2.96-7.17,3.81-10.99
		c0.82-3.7,1.24-7.53,1.24-11.39C225.04,83.7,217.88,69.68,205.38,60.39"/>
</g>
</svg>
