<svg enable-background="new 0 0 576 162" viewBox="0 0 576 162" xmlns="http://www.w3.org/2000/svg"><g fill="#807fff"><path d="m315.06 91.39c0-23.64-15.44-39.34-38.16-39.34-9.09 0-16.17 1.78-23.49 7.79-.68.55-1.7.04-1.7-.83v-41.28c0-1.65-1.34-2.98-2.98-2.98h-14.35c-1.65 0-2.98 1.34-2.98 2.98v125.16c0 1.65 1.34 2.98 2.98 2.98h14.35c1.65 0 2.98-1.34 2.98-2.98v-51.12c0-5.91 2.34-11.7 6.82-15.55 4.01-3.45 9.15-5.33 15.16-5.33 13.85 0 21.06 9.6 21.06 22.9v49.1c0 1.65 1.34 2.98 2.98 2.98h14.35c1.65 0 2.98-1.34 2.98-2.98z"/><path d="m424.14 142.89c0 1.65 1.34 2.98 2.98 2.98h14.35c1.65 0 2.98-1.34 2.98-2.98v-48.93c0-3 .34-6.02 1.22-8.89.73-2.4 1.86-4.69 3.44-6.66 1.45-1.8 3.27-3.29 5.32-4.36 2.26-1.18 4.7-1.8 7.21-2.12 3.03-.39 6.12.01 8.93 1.2 1.1.47 2.37.18 3.08-.78l8.98-12.11c.97-1.31.45-3.19-1.05-3.83-5.03-2.15-9.66-3.07-14.61-3.19-4.19-.1-8.4.42-12.38 1.7-1.9.61-3.75 1.38-5.47 2.41-.88.52-1.73 1.1-2.54 1.73-.12.09-.42.4-.77.75-.49.52-1.36.17-1.36-.55v-2.76c0-1.65-1.34-2.98-2.98-2.98h-14.35c-1.65 0-2.98 1.34-2.98 2.98z"/><path d="m391.79 89.18h-46.49c-.73 0-1.27-.69-1.09-1.4 3.44-13.35 15.13-18.36 24.24-18.36 6.68 0 13.53 2.07 18.41 6.83 3.15 3.08 5.47 7.24 6.05 11.64.08.68-.44 1.29-1.12 1.29m19.34-8.66c-6.42-17.62-21.58-28.47-41.39-28.47-26.6 0-46.91 20.69-46.91 47.65 0 27.34 21.05 47.65 47.28 47.65 15.61 0 28.57-6.08 36.87-15.08 1.21-1.31 1.11-3.32-.24-4.48l-9.88-8.51c-1.24-1.07-3.19-.98-4.33.19-5.18 5.31-12.65 9.04-22.41 9.04-12.26 0-24.52-8.38-26.75-22.83-.14-.92.61-1.74 1.53-1.74h66.58c1.11 0 2.1-.91 2.15-2.02.3-6.43-.28-14.6-2.5-21.4"/><path d="m544.28 89.18h-46.49c-.73 0-1.28-.69-1.09-1.4 3.44-13.35 15.13-18.36 24.24-18.36 6.68 0 13.54 2.07 18.41 6.83 3.15 3.08 5.47 7.24 6.05 11.64.08.68-.43 1.29-1.12 1.29m19.34-8.66c-6.42-17.62-21.58-28.47-41.39-28.47-26.6 0-46.91 20.69-46.91 47.65 0 27.34 21.05 47.65 47.28 47.65 15.61 0 28.57-6.08 36.87-15.08 1.21-1.31 1.11-3.32-.24-4.48l-9.88-8.51c-1.24-1.07-3.19-.98-4.33.19-5.18 5.31-12.65 9.04-22.41 9.04-12.26 0-24.52-8.38-26.75-22.83-.14-.92.61-1.74 1.53-1.74h66.58c1.11 0 2.1-.91 2.15-2.02.31-6.43-.27-14.6-2.5-21.4"/><path d="m205.38 60.39c-11.09-8.25-25.87-11.42-39.38-8.51-10.55 2.27-20.28 8.3-27.3 16.46-8.33 9.69-12.5 22.07-18.81 33.1-.02.03-.04.06-.06.09-3.25 6.21-7.84 11.88-13.37 16.17-5.93 4.6-13 7.47-20.34 8.96-1.95.4-3.93.67-5.91.81-.91.04-1.81.09-2.72.14-5.85-.03-11.66-.67-17.21-2.62-4.99-1.75-9.66-4.37-13.74-7.74-4.05-3.35-7.49-7.41-10.14-11.95-2.76-4.71-4.67-9.91-5.69-15.27-.62-3.25-.92-6.55-.92-9.86 0-27.06 19.94-47.46 46.38-47.46 9.56 0 17.94 2.54 25.39 7.73 2.67 1.86 4.68 3.64 6.76 5.68l.29.3c1.27 1.31 3.36 1.34 4.67.06l7.35-7.19 2.67-2.67c1.26-1.26 1.29-3.29.07-4.58-.09-.09-1.54-1.66-3.69-3.44-12.15-10.51-27.68-16.34-43.94-16.4-3.82 0-7.68.35-11.5 1.02-2.09.32-4.13.88-4.13.88-30.15 7.22-51.88 34.71-51.91 66.21 0 .38.01.76.02 1.13l.03 1.03c.01.41.01.82.03 1.23l.08 1.06c1.44 23.19 14.12 43.64 33.91 54.71 9.07 5.08 19.06 7.96 29.83 8.58.27.02.71.05.92.05.27 0 .74.02.77.02l.3.01c6.75.23 13.71-.59 20.49-2.41 7.19-1.92 13.82-4.84 19.66-8.65 3.44-2.12 6.55-4.54 9.24-7.19 7.08-6.96 12.63-15.19 17.99-26.68l1.12-2.41c3.83-8.25 7.72-17.04 14.9-22.96 5.99-4.94 13.99-7.38 21.72-6.62 10.68 1.06 20.48 8.08 24.07 18.31 1.1 3.13 1.66 6.41 1.66 9.76 0 7.79-2.42 14.9-6.8 20.04-6.7 7.84-18.52 11.27-28.63 8.15-5.57-1.72-11.02-6.06-14.52-11.05-1.68-2.42-3.35-5.54-4.56-8.88-.54-1.48-2.58-1.59-3.27-.18-2.25 4.61-4.82 10.13-7.45 14.55-.69 1.16-.76 2.59-.13 3.79l.32.61c6.32 12.03 18.48 19.6 31.77 21.48 13.81 1.95 27.66-2.65 37.86-12.08 4.31-3.99 7.89-8.76 10.45-14.05 1.68-3.48 2.96-7.17 3.81-10.99.82-3.7 1.24-7.53 1.24-11.39.01-15.58-7.15-29.6-19.65-38.89"/></g></svg>