<svg enable-background="new 0 0 32 32" viewBox="0 0 32 40" xmlns="http://www.w3.org/2000/svg"><path d="m16 30c-7.72 0-14-6.28-14-14s6.28-14 14-14 14 6.28 14 14-6.28 14-14 14zm0-26c-6.62 0-12 5.38-12 12s5.38 12 12 12 12-5.38 12-12-5.38-12-12-12z"/><path d="m7 32c-.17 0-.35-.05-.51-.14-.47-.28-.63-.9-.34-1.37l2.31-3.85c.28-.47.9-.63 1.37-.34s.63.9.34 1.37l-2.31 3.85c-.19.31-.52.48-.86.48z"/><path d="m29.77 8.88c-.26 0-.52-.1-.72-.31-.38-.4-.37-1.03.03-1.41.59-.58.92-1.34.92-2.16 0-1.65-1.35-3-3-3-.82 0-1.58.33-2.16.92-.38.4-1.02.41-1.41.03-.4-.38-.41-1.02-.03-1.41.96-.99 2.23-1.54 3.6-1.54 2.76 0 5 2.24 5 5 0 1.37-.55 2.64-1.54 3.6-.19.19-.44.28-.69.28z"/><path d="m2.23 8.88c-.25 0-.5-.09-.69-.28-.99-.96-1.54-2.23-1.54-3.6 0-2.76 2.24-5 5-5 1.37 0 2.64.55 3.6 1.54.38.4.37 1.03-.03 1.41s-1.03.37-1.41-.03c-.58-.59-1.34-.92-2.16-.92-1.65 0-3 1.35-3 3 0 .82.33 1.58.92 2.16.4.38.41 1.02.03 1.41-.19.21-.46.31-.72.31z"/><path d="m16 4c-.55 0-1-.45-1-1v-2c0-.55.45-1 1-1s1 .45 1 1v2c0 .55-.45 1-1 1z"/><path d="m14 21c-.26 0-.51-.1-.71-.29l-4-4c-.39-.39-.39-1.02 0-1.41s1.02-.39 1.41 0l3.3 3.29 7.29-7.29c.39-.39 1.02-.39 1.41 0s.39 1.02 0 1.41l-8 8c-.19.19-.44.29-.7.29z"/><path d="m25 32c-.34 0-.67-.17-.86-.49l-2.31-3.85c-.28-.47-.13-1.09.34-1.37s1.09-.13 1.37.34l2.31 3.85c.28.47.13 1.09-.34 1.37-.16.1-.33.15-.51.15z"/></svg>
