<svg enable-background="new 0 0 32 32" viewBox="0 0 32 40" xmlns="http://www.w3.org/2000/svg"><path d="m30 32h-28c-1.1 0-2-.9-2-2v-21c0-1.1.9-2 2-2h19c.55 0 1 .45 1 1s-.45 1-1 1h-19v21h28v-21h-3c-.55 0-1-.45-1-1s.45-1 1-1h3c1.1 0 2 .9 2 2v21c0 1.1-.9 2-2 2z"/><path d="m4 29c-.26 0-.51-.1-.71-.29-.39-.39-.39-1.02 0-1.41l12-12c.39-.39 1.02-.39 1.41 0l6.3 6.29v-20.59c0-.55.45-1 1-1s1 .45 1 1v23c0 .4-.24.77-.62.92-.37.16-.8.07-1.09-.22l-7.29-7.29-11.29 11.3c-.2.19-.45.29-.71.29z"/><path d="m28 6c-.26 0-.51-.1-.71-.29l-3.29-3.3-3.29 3.29c-.39.39-1.02.39-1.41 0s-.39-1.02 0-1.41l4-4c.39-.39 1.02-.39 1.41 0l4 4c.39.39.39 1.02 0 1.41-.2.2-.45.3-.71.3z"/></svg>