<svg enable-background="new 0 0 32 32" viewBox="0 0 32 40" xmlns="http://www.w3.org/2000/svg"><path d="m27 31.83c-.51 0-1.02-.2-1.41-.58l-4.86-4.86c-.39-.39-.39-1.02 0-1.41s1.02-.39 1.41 0l4.86 4.85 2.83-2.83-7.2-7.2c-.3-.3-.38-.76-.19-1.14.01-.04 1.56-3.27 1.56-5.66 0-6.07-4.93-11-11-11s-11 4.93-11 11 4.93 11 11 11c2.93 0 5.69-1.14 7.76-3.21.39-.39 1.02-.39 1.41 0s.39 1.02 0 1.41c-2.45 2.45-5.71 3.8-9.17 3.8-7.17 0-13-5.83-13-13s5.83-13 13-13 13 5.83 13 13c0 2.16-.97 4.7-1.47 5.87l6.71 6.71c.78.78.78 2.05 0 2.83l-2.83 2.83c-.39.39-.9.59-1.41.59z"/><path d="m19 12h-12c-.55 0-1-.45-1-1s.45-1 1-1h12c.55 0 1 .45 1 1s-.45 1-1 1z"/><path d="m12 16h-5c-.55 0-1-.45-1-1s.45-1 1-1h5c.55 0 1 .45 1 1s-.45 1-1 1z"/></svg>
